<svg xmlns="http://www.w3.org/2000/svg" xmlns:xlink="http://www.w3.org/1999/xlink" width="1010" height="332.561" viewBox="0 0 1010 332.561">
  <defs>
    <clipPath id="clip-path">
      <path id="Path_64" data-name="Path 64" d="M0,278.561H1010V-54H0Z" transform="translate(0 54)" fill="none"/>
    </clipPath>
  </defs>
  <g id="Group_21" data-name="Group 21" transform="translate(0 54)">
    <g id="Group_20" data-name="Group 20" transform="translate(0 -54)" clip-path="url(#clip-path)">
      <g id="Group_18" data-name="Group 18" transform="translate(0.002 -0.002)">
        <path id="Path_62" data-name="Path 62" d="M94.69,70.739a2.174,2.174,0,1,1,2.174,2.155,2.166,2.166,0,0,1-2.174-2.155M66.656,158.615a5.62,5.62,0,1,0-5.592-5.623,5.608,5.608,0,0,0,5.592,5.623m1.737-36.335a2.177,2.177,0,1,0-2.18-2.18,2.175,2.175,0,0,0,2.18,2.18M40.76,207.422a5.629,5.629,0,1,0-5.61-5.629,5.623,5.623,0,0,0,5.61,5.629m-28.933-63.07a9.527,9.527,0,1,0,9.484,9.527,9.505,9.505,0,0,0-9.484-9.527m28.933-2.463a5.629,5.629,0,1,0-5.61-5.629,5.619,5.619,0,0,0,5.61,5.629m56.948.289a5.638,5.638,0,1,0-5.6-5.641,5.619,5.619,0,0,0,5.6,5.641m-.844-36.372a2.177,2.177,0,1,0-2.174-2.174,2.178,2.178,0,0,0,2.174,2.174m-28.471-82.3a2.156,2.156,0,1,0-2.18-2.155,2.166,2.166,0,0,0,2.18,2.155m0,65.822a2.156,2.156,0,1,0-2.18-2.155,2.166,2.166,0,0,0,2.18,2.155m0-32.911a2.156,2.156,0,1,0-2.18-2.155,2.166,2.166,0,0,0,2.18,2.155M40.766,39.983a2.174,2.174,0,1,0-2.137-2.174,2.153,2.153,0,0,0,2.137,2.174M11.827,240.019a9.527,9.527,0,1,0,9.484,9.527,9.505,9.505,0,0,0-9.484-9.527M-16.207,68.584a2.153,2.153,0,0,0-2.149,2.155,2.153,2.153,0,0,0,2.149,2.155,2.154,2.154,0,0,0,2.155-2.155,2.154,2.154,0,0,0-2.155-2.155m28.034,107.59a9.509,9.509,0,1,0,9.484,9.509,9.494,9.494,0,0,0-9.484-9.509m-28.034-74.722a2.166,2.166,0,0,0-2.149,2.18,2.165,2.165,0,0,0,2.149,2.174,2.166,2.166,0,0,0,2.155-2.174,2.167,2.167,0,0,0-2.155-2.18M11.827,207.994a9.527,9.527,0,1,0,9.484,9.527,9.505,9.505,0,0,0-9.484-9.527m-28.034-73.631a2.161,2.161,0,0,0-2.149,2.174,2.161,2.161,0,0,0,2.149,2.174,2.162,2.162,0,0,0,2.155-2.174,2.162,2.162,0,0,0-2.155-2.174m0,65.822a2.161,2.161,0,0,0-2.149,2.174,2.161,2.161,0,0,0,2.149,2.174,2.162,2.162,0,0,0,2.155-2.174,2.162,2.162,0,0,0-2.155-2.174M12.27,59.882a5.62,5.62,0,1,0-5.617-5.617,5.614,5.614,0,0,0,5.617,5.617M-16.207,233.133a2.153,2.153,0,0,0-2.149,2.155,2.153,2.153,0,0,0,2.149,2.156,2.154,2.154,0,0,0,2.155-2.156,2.154,2.154,0,0,0-2.155-2.155m0-65.859a2.161,2.161,0,0,0-2.149,2.174,2.161,2.161,0,0,0,2.149,2.174,2.162,2.162,0,0,0,2.155-2.174,2.162,2.162,0,0,0-2.155-2.174M40.76,109.125a5.629,5.629,0,1,0-5.61-5.629,5.623,5.623,0,0,0,5.61,5.629m141.529-52.7a2.156,2.156,0,1,0-2.18-2.155,2.166,2.166,0,0,0,2.18,2.155M96.864,39.983a2.174,2.174,0,1,0-2.174-2.174,2.174,2.174,0,0,0,2.174,2.174m85.425-16.474a2.156,2.156,0,1,0-2.18-2.155,2.166,2.166,0,0,0,2.18,2.155m0,98.771a2.177,2.177,0,1,0-2.18-2.18,2.175,2.175,0,0,0,2.18,2.18m-.868,36.335a5.62,5.62,0,1,0-5.617-5.623,5.619,5.619,0,0,0,5.617,5.623m.868-69.284a2.156,2.156,0,1,0-2.18-2.155,2.166,2.166,0,0,0,2.18,2.155m56.117-29.45a5.62,5.62,0,1,0-5.617-5.617,5.619,5.619,0,0,0,5.617,5.617m28.477,13.013a2.155,2.155,0,1,0-2.155-2.155,2.158,2.158,0,0,0,2.155,2.155m-56.991,3.461a5.638,5.638,0,1,0-5.617-5.635,5.627,5.627,0,0,0,5.617,5.635m.025-36.372a2.174,2.174,0,1,0-2.137-2.174,2.153,2.153,0,0,0,2.137,2.174m-.025,134.7a5.638,5.638,0,1,0-5.617-5.641,5.633,5.633,0,0,0,5.617,5.641M153.812,7.072A2.174,2.174,0,1,0,151.638,4.9a2.174,2.174,0,0,0,2.174,2.174m0,32.911a2.174,2.174,0,1,0-2.174-2.174,2.174,2.174,0,0,0,2.174,2.174M125.341,56.42a2.156,2.156,0,1,0-2.18-2.155,2.166,2.166,0,0,0,2.18,2.155m0,32.911a2.156,2.156,0,1,0-2.18-2.155,2.166,2.166,0,0,0,2.18,2.155m0,38.1a5.62,5.62,0,1,0-5.6-5.617,5.61,5.61,0,0,0,5.6,5.617M96.864,7.072A2.174,2.174,0,1,0,94.69,4.9a2.174,2.174,0,0,0,2.174,2.174m28.477,16.437a2.156,2.156,0,1,0-2.18-2.155,2.166,2.166,0,0,0,2.18,2.155m28.471,82.3a2.177,2.177,0,1,0-2.174-2.174,2.178,2.178,0,0,0,2.174,2.174M125.341-9.4a2.162,2.162,0,0,0,2.174-2.155,2.166,2.166,0,0,0-2.174-2.155,2.167,2.167,0,0,0-2.18,2.155,2.163,2.163,0,0,0,2.18,2.155m28.471,82.3a2.156,2.156,0,1,0-2.174-2.155,2.166,2.166,0,0,0,2.174,2.155m-.844,68.4a5.62,5.62,0,1,0-5.6-5.617,5.606,5.606,0,0,0,5.6,5.617m-84.575,140.3a2.177,2.177,0,1,0,2.174,2.174,2.183,2.183,0,0,0-2.174-2.174m141.523-85.425a5.629,5.629,0,1,0,5.61,5.629,5.619,5.619,0,0,0-5.61-5.629M11.827,112.488a9.549,9.549,0,1,0,9.484,9.552,9.515,9.515,0,0,0-9.484-9.552m198.089,18.143a5.629,5.629,0,1,0,5.61,5.629,5.619,5.619,0,0,0-5.61-5.629m0-32.763a5.629,5.629,0,1,0,5.61,5.629,5.619,5.619,0,0,0-5.61-5.629m28.933,142.151a9.527,9.527,0,1,0,9.484,9.527,9.509,9.509,0,0,0-9.484-9.527m-28.957,21.672a5.62,5.62,0,1,0,5.623,5.623,5.623,5.623,0,0,0-5.623-5.623m-27.6,19.9a2.177,2.177,0,1,0,2.174,2.174,2.183,2.183,0,0,0-2.174-2.174M154.255,159.5a9.527,9.527,0,1,0,9.5,9.527,9.517,9.517,0,0,0-9.5-9.527m27.165,86.164a5.638,5.638,0,1,0,5.617,5.641,5.627,5.627,0,0,0-5.617-5.641m2.174-68.84a9.527,9.527,0,1,0,9.484,9.527,9.505,9.505,0,0,0-9.484-9.527m0,31.858a9.509,9.509,0,1,0,9.484,9.509,9.5,9.5,0,0,0-9.484-9.509m83.288-8.493a2.174,2.174,0,1,0,2.155,2.174,2.166,2.166,0,0,0-2.155-2.174m-112.627-8.868a9.527,9.527,0,1,0,9.5,9.527,9.517,9.517,0,0,0-9.5-9.527m112.627-24.043a2.174,2.174,0,1,0,2.155,2.174,2.166,2.166,0,0,0-2.155-2.174m0-65.822a2.177,2.177,0,1,0,2.155,2.18,2.171,2.171,0,0,0-2.155-2.18M238.849,207.994a9.527,9.527,0,1,0,9.484,9.527,9.509,9.509,0,0,0-9.484-9.527m28.034-73.631a2.174,2.174,0,1,0,2.155,2.174,2.166,2.166,0,0,0-2.155-2.174m0,98.771a2.155,2.155,0,1,0,2.155,2.155,2.158,2.158,0,0,0-2.155-2.155m-28.034-88.781a9.527,9.527,0,1,0,9.484,9.527,9.509,9.509,0,0,0-9.484-9.527m0,31.821a9.509,9.509,0,1,0,9.484,9.509,9.5,9.5,0,0,0-9.484-9.509m0-63.685a9.549,9.549,0,1,0,9.484,9.552,9.519,9.519,0,0,0-9.484-9.552m0-31.821a9.527,9.527,0,1,0,9.484,9.527,9.509,9.509,0,0,0-9.484-9.527M209.916,228.927a5.629,5.629,0,1,0,5.61,5.629,5.619,5.619,0,0,0-5.61-5.629M66.656,245.66a5.638,5.638,0,1,0,5.6,5.641,5.614,5.614,0,0,0-5.6-5.641m1.269-68.84a9.527,9.527,0,1,0,9.49,9.527,9.509,9.509,0,0,0-9.49-9.527m0,31.858a9.509,9.509,0,1,0,9.49,9.509,9.5,9.5,0,0,0-9.49-9.509m28.939,56.48a2.156,2.156,0,1,0,2.174,2.156,2.162,2.162,0,0,0-2.174-2.156m0,32.905a2.156,2.156,0,1,0,2.174,2.155,2.166,2.166,0,0,0-2.174-2.155m56.1-69.727a5.62,5.62,0,1,0,5.6,5.623,5.612,5.612,0,0,0-5.6-5.623M11.827,80.667a9.527,9.527,0,1,0,9.484,9.527,9.505,9.505,0,0,0-9.484-9.527M40.76,240.185a5.629,5.629,0,1,0-5.61-5.629,5.619,5.619,0,0,0,5.61,5.629m.025-76.778a5.638,5.638,0,1,0,5.617,5.635,5.626,5.626,0,0,0-5.617-5.635m56.923,65.779a5.638,5.638,0,1,0,5.6,5.641,5.619,5.619,0,0,0-5.6-5.641m-56.923,32.5a5.62,5.62,0,1,0,5.617,5.623,5.619,5.619,0,0,0-5.617-5.623m0-196.611A5.638,5.638,0,1,0,46.4,70.721a5.627,5.627,0,0,0-5.617-5.641M125.76,177.5a9.506,9.506,0,1,0,9.484,9.509,9.5,9.5,0,0,0-9.484-9.509m0-31.864a9.527,9.527,0,1,0,9.484,9.527,9.509,9.509,0,0,0-9.484-9.527m28.052,119.519a2.156,2.156,0,1,0,2.174,2.156,2.162,2.162,0,0,0-2.174-2.156m0,32.905a2.156,2.156,0,1,0,2.174,2.155,2.166,2.166,0,0,0-2.174-2.155m-28.471-83.577a5.638,5.638,0,1,0,5.6,5.635,5.614,5.614,0,0,0-5.6-5.635m-28.92-23.168a9.527,9.527,0,1,0,9.509,9.527,9.517,9.517,0,0,0-9.509-9.527m0-31.821a9.527,9.527,0,1,0,9.509,9.527,9.517,9.517,0,0,0-9.509-9.527m28.92,155a2.174,2.174,0,1,0,2.174,2.174,2.175,2.175,0,0,0-2.174-2.174m0-32.911a2.177,2.177,0,1,0,2.174,2.174,2.179,2.179,0,0,0-2.174-2.174m0-32.905a2.174,2.174,0,1,0,2.174,2.174,2.175,2.175,0,0,0-2.174-2.174" transform="translate(18.356 13.713)" fill="#fff"/>
      </g>
      <g id="Group_19" data-name="Group 19" transform="translate(375.671 86.221)">
        <path id="Path_63" data-name="Path 63" d="M531.329,46.406H516.2a10.994,10.994,0,0,0-10.346,7.138h-.049l-22.916,69.265-25.275-76.4H434.24l-25.268,76.4L386.056,53.544h-.043a10.973,10.973,0,0,0-10.069-7.119v-.018H360.528l4.582,13.851.135.406L397.381,157.8h23.175l25.379-76.7L471.3,157.8h23.175l32.049-96.874.271-.825Zm-181.7,79.34a65.5,65.5,0,0,0,4.2-23.8q0-26.411-16.363-41.86Q323.328,46.4,299.226,46.406q-23.981,0-38.46,13.678a49.6,49.6,0,0,0-12.157,18.266,64.291,64.291,0,0,0-4.2,23.593,65.374,65.374,0,0,0,4.2,23.8,49.423,49.423,0,0,0,12.157,18.377q14.143,13.672,38.46,13.672,24.1,0,38.245-13.672a49.361,49.361,0,0,0,12.163-18.377m-18.9-23.8q0,18.069-8.961,27.559a29.493,29.493,0,0,1-22.546,9.607q-13.811,0-22.768-9.817-8.951-9.7-8.948-27.35,0-17.016,8.844-26.931,8.73-9.811,22.873-9.817,13.6,0,22.546,9.293,8.961,9.395,8.961,27.455M212.514,157.808h16.351V139.123h-9.281a8.716,8.716,0,0,1-8.708-8.708V1.7l.012-.259A10.568,10.568,0,0,0,200.677-8.971V-9H189.389V134.683a23.124,23.124,0,0,0,23.125,23.125m-55.02,0h16.351V139.123h-9.281a8.716,8.716,0,0,1-8.708-8.708V1.7l.018-.259A10.573,10.573,0,0,0,145.657-8.971V-9H134.368V134.683a23.124,23.124,0,0,0,23.125,23.125M87.225,157.8H108.73V57.1h-.018l.018-.259A10.582,10.582,0,0,0,98.514,46.431v-.025H87.225V56.845h0ZM63.311,59.961l4.477-13.555H52.676a11,11,0,0,0-10.346,7.138h-.062L19.352,122.809l-25.275-76.4H-29.288l-25.281,76.4L-77.2,54.382a10.945,10.945,0,0,0-10.334-7.957v-.018H-103L-66.147,157.8h23.168l25.373-76.7L7.774,157.8H30.942L62.923,61.137Z" transform="translate(103 8.996)" fill="#fff"/>
      </g>
    </g>
  </g>
</svg>
